%TF.GenerationSoftware,KiCad,Pcbnew,9.0.1*%
%TF.CreationDate,2025-04-08T04:17:53-04:00*%
%TF.ProjectId,juiceshanghai,6a756963-6573-4686-916e-676861692e6b,rev?*%
%TF.SameCoordinates,Original*%
%TF.FileFunction,Copper,L2,Bot*%
%TF.FilePolarity,Positive*%
%FSLAX46Y46*%
G04 Gerber Fmt 4.6, Leading zero omitted, Abs format (unit mm)*
G04 Created by KiCad (PCBNEW 9.0.1) date 2025-04-08 04:17:53*
%MOMM*%
%LPD*%
G01*
G04 APERTURE LIST*
%ADD10C,0.125000*%
%TA.AperFunction,NonConductor*%
%ADD11C,0.125000*%
%TD*%
%TA.AperFunction,SMDPad,CuDef*%
%ADD12R,1.270000X5.080000*%
%TD*%
%TA.AperFunction,SMDPad,CuDef*%
%ADD13C,17.800000*%
%TD*%
%TA.AperFunction,ComponentPad*%
%ADD14C,2.000000*%
%TD*%
%TA.AperFunction,ComponentPad*%
%ADD15R,1.800000X1.800000*%
%TD*%
%TA.AperFunction,ComponentPad*%
%ADD16C,1.800000*%
%TD*%
%TA.AperFunction,ViaPad*%
%ADD17C,0.600000*%
%TD*%
%TA.AperFunction,Conductor*%
%ADD18C,0.200000*%
%TD*%
G04 APERTURE END LIST*
D10*
D11*
X153132049Y-146170404D02*
X153060621Y-146194214D01*
X153060621Y-146194214D02*
X153036811Y-146218023D01*
X153036811Y-146218023D02*
X153013002Y-146265642D01*
X153013002Y-146265642D02*
X153013002Y-146337071D01*
X153013002Y-146337071D02*
X153036811Y-146384690D01*
X153036811Y-146384690D02*
X153060621Y-146408500D01*
X153060621Y-146408500D02*
X153108240Y-146432309D01*
X153108240Y-146432309D02*
X153298716Y-146432309D01*
X153298716Y-146432309D02*
X153298716Y-145932309D01*
X153298716Y-145932309D02*
X153132049Y-145932309D01*
X153132049Y-145932309D02*
X153084430Y-145956119D01*
X153084430Y-145956119D02*
X153060621Y-145979928D01*
X153060621Y-145979928D02*
X153036811Y-146027547D01*
X153036811Y-146027547D02*
X153036811Y-146075166D01*
X153036811Y-146075166D02*
X153060621Y-146122785D01*
X153060621Y-146122785D02*
X153084430Y-146146595D01*
X153084430Y-146146595D02*
X153132049Y-146170404D01*
X153132049Y-146170404D02*
X153298716Y-146170404D01*
X152846335Y-146098976D02*
X152727287Y-146432309D01*
X152608240Y-146098976D02*
X152727287Y-146432309D01*
X152727287Y-146432309D02*
X152774906Y-146551357D01*
X152774906Y-146551357D02*
X152798716Y-146575166D01*
X152798716Y-146575166D02*
X152846335Y-146598976D01*
X152417764Y-146384690D02*
X152393954Y-146408500D01*
X152393954Y-146408500D02*
X152417764Y-146432309D01*
X152417764Y-146432309D02*
X152441573Y-146408500D01*
X152441573Y-146408500D02*
X152417764Y-146384690D01*
X152417764Y-146384690D02*
X152417764Y-146432309D01*
X152417764Y-146122785D02*
X152393954Y-146146595D01*
X152393954Y-146146595D02*
X152417764Y-146170404D01*
X152417764Y-146170404D02*
X152441573Y-146146595D01*
X152441573Y-146146595D02*
X152417764Y-146122785D01*
X152417764Y-146122785D02*
X152417764Y-146170404D01*
X151655860Y-145932309D02*
X151655860Y-146289452D01*
X151655860Y-146289452D02*
X151679669Y-146360880D01*
X151679669Y-146360880D02*
X151727288Y-146408500D01*
X151727288Y-146408500D02*
X151798717Y-146432309D01*
X151798717Y-146432309D02*
X151846336Y-146432309D01*
X151203479Y-146098976D02*
X151203479Y-146432309D01*
X151417765Y-146098976D02*
X151417765Y-146360880D01*
X151417765Y-146360880D02*
X151393955Y-146408500D01*
X151393955Y-146408500D02*
X151346336Y-146432309D01*
X151346336Y-146432309D02*
X151274908Y-146432309D01*
X151274908Y-146432309D02*
X151227289Y-146408500D01*
X151227289Y-146408500D02*
X151203479Y-146384690D01*
X150965384Y-146098976D02*
X150965384Y-146432309D01*
X150965384Y-146146595D02*
X150941574Y-146122785D01*
X150941574Y-146122785D02*
X150893955Y-146098976D01*
X150893955Y-146098976D02*
X150822527Y-146098976D01*
X150822527Y-146098976D02*
X150774908Y-146122785D01*
X150774908Y-146122785D02*
X150751098Y-146170404D01*
X150751098Y-146170404D02*
X150751098Y-146432309D01*
X150298717Y-146432309D02*
X150298717Y-146170404D01*
X150298717Y-146170404D02*
X150322527Y-146122785D01*
X150322527Y-146122785D02*
X150370146Y-146098976D01*
X150370146Y-146098976D02*
X150465384Y-146098976D01*
X150465384Y-146098976D02*
X150513003Y-146122785D01*
X150298717Y-146408500D02*
X150346336Y-146432309D01*
X150346336Y-146432309D02*
X150465384Y-146432309D01*
X150465384Y-146432309D02*
X150513003Y-146408500D01*
X150513003Y-146408500D02*
X150536812Y-146360880D01*
X150536812Y-146360880D02*
X150536812Y-146313261D01*
X150536812Y-146313261D02*
X150513003Y-146265642D01*
X150513003Y-146265642D02*
X150465384Y-146241833D01*
X150465384Y-146241833D02*
X150346336Y-146241833D01*
X150346336Y-146241833D02*
X150298717Y-146218023D01*
X150060622Y-146432309D02*
X150060622Y-146098976D01*
X150060622Y-145932309D02*
X150084431Y-145956119D01*
X150084431Y-145956119D02*
X150060622Y-145979928D01*
X150060622Y-145979928D02*
X150036812Y-145956119D01*
X150036812Y-145956119D02*
X150060622Y-145932309D01*
X150060622Y-145932309D02*
X150060622Y-145979928D01*
X149608241Y-146432309D02*
X149608241Y-145932309D01*
X149608241Y-146408500D02*
X149655860Y-146432309D01*
X149655860Y-146432309D02*
X149751098Y-146432309D01*
X149751098Y-146432309D02*
X149798717Y-146408500D01*
X149798717Y-146408500D02*
X149822527Y-146384690D01*
X149822527Y-146384690D02*
X149846336Y-146337071D01*
X149846336Y-146337071D02*
X149846336Y-146194214D01*
X149846336Y-146194214D02*
X149822527Y-146146595D01*
X149822527Y-146146595D02*
X149798717Y-146122785D01*
X149798717Y-146122785D02*
X149751098Y-146098976D01*
X149751098Y-146098976D02*
X149655860Y-146098976D01*
X149655860Y-146098976D02*
X149608241Y-146122785D01*
X148989194Y-146432309D02*
X148989194Y-145932309D01*
X148989194Y-145932309D02*
X148822527Y-146289452D01*
X148822527Y-146289452D02*
X148655861Y-145932309D01*
X148655861Y-145932309D02*
X148655861Y-146432309D01*
X148036813Y-146384690D02*
X148013003Y-146408500D01*
X148013003Y-146408500D02*
X148036813Y-146432309D01*
X148036813Y-146432309D02*
X148060622Y-146408500D01*
X148060622Y-146408500D02*
X148036813Y-146384690D01*
X148036813Y-146384690D02*
X148036813Y-146432309D01*
X148036813Y-146122785D02*
X148013003Y-146146595D01*
X148013003Y-146146595D02*
X148036813Y-146170404D01*
X148036813Y-146170404D02*
X148060622Y-146146595D01*
X148060622Y-146146595D02*
X148036813Y-146122785D01*
X148036813Y-146122785D02*
X148036813Y-146170404D01*
X147846337Y-146622785D02*
X147822527Y-146598976D01*
X147822527Y-146598976D02*
X147774908Y-146527547D01*
X147774908Y-146527547D02*
X147751099Y-146479928D01*
X147751099Y-146479928D02*
X147727289Y-146408500D01*
X147727289Y-146408500D02*
X147703480Y-146289452D01*
X147703480Y-146289452D02*
X147703480Y-146194214D01*
X147703480Y-146194214D02*
X147727289Y-146075166D01*
X147727289Y-146075166D02*
X147751099Y-146003738D01*
X147751099Y-146003738D02*
X147774908Y-145956119D01*
X147774908Y-145956119D02*
X147822527Y-145884690D01*
X147822527Y-145884690D02*
X147846337Y-145860880D01*
D12*
%TO.P,BT1,1,+*%
%TO.N,Net-(BT1-+)*%
X162500000Y-119500000D03*
X140530000Y-119500000D03*
D13*
%TO.P,BT1,2,-*%
%TO.N,Net-(BT1--)*%
X151515000Y-119500000D03*
%TD*%
D14*
%TO.P,SW1,1,1*%
%TO.N,Net-(D1-A)*%
X164000000Y-94000000D03*
X170500000Y-94000000D03*
%TO.P,SW1,2,2*%
%TO.N,Net-(BT1-+)*%
X164000000Y-98500000D03*
X170500000Y-98500000D03*
%TD*%
D15*
%TO.P,D1,1,K*%
%TO.N,Net-(D1-K)*%
X170000000Y-134500000D03*
D16*
%TO.P,D1,2,A*%
%TO.N,Net-(D1-A)*%
X172540000Y-134500000D03*
%TD*%
D14*
%TO.P,SW2,1,1*%
%TO.N,Net-(D2-A)*%
X134000000Y-94000000D03*
X140500000Y-94000000D03*
%TO.P,SW2,2,2*%
%TO.N,Net-(BT1-+)*%
X134000000Y-98500000D03*
X140500000Y-98500000D03*
%TD*%
D15*
%TO.P,D2,1,K*%
%TO.N,Net-(D1-K)*%
X129460000Y-135500000D03*
D16*
%TO.P,D2,2,A*%
%TO.N,Net-(D2-A)*%
X132000000Y-135500000D03*
%TD*%
D17*
%TO.N,Net-(BT1--)*%
X151515000Y-119500000D03*
%TD*%
D18*
%TO.N,Net-(D1-A)*%
X173000000Y-131000000D02*
X173000000Y-122000000D01*
X173000000Y-131000000D02*
X173000000Y-134500000D01*
%TO.N,Net-(BT1-+)*%
X155326179Y-128701000D02*
X147703821Y-128701000D01*
X140530000Y-121527179D02*
X140530000Y-119500000D01*
X162500000Y-121527179D02*
X155326179Y-128701000D01*
X162500000Y-119500000D02*
X162500000Y-121527179D01*
X147703821Y-128701000D02*
X140530000Y-121527179D01*
X140530000Y-98530000D02*
X140500000Y-98500000D01*
X140530000Y-119500000D02*
X140530000Y-98530000D01*
X162500000Y-100000000D02*
X162500000Y-119500000D01*
X164000000Y-98500000D02*
X162500000Y-100000000D01*
%TO.N,Net-(D1-A)*%
X170500000Y-94000000D02*
X164000000Y-94000000D01*
X173000000Y-96500000D02*
X173000000Y-131000000D01*
X170500000Y-94000000D02*
X173000000Y-96500000D01*
%TO.N,Net-(BT1-+)*%
X134000000Y-98500000D02*
X140500000Y-98500000D01*
%TD*%
M02*
