%TF.GenerationSoftware,KiCad,Pcbnew,9.0.1*%
%TF.CreationDate,2025-04-08T04:17:53-04:00*%
%TF.ProjectId,juiceshanghai,6a756963-6573-4686-916e-676861692e6b,rev?*%
%TF.SameCoordinates,Original*%
%TF.FileFunction,Legend,Top*%
%TF.FilePolarity,Positive*%
%FSLAX46Y46*%
G04 Gerber Fmt 4.6, Leading zero omitted, Abs format (unit mm)*
G04 Created by KiCad (PCBNEW 9.0.1) date 2025-04-08 04:17:53*
%MOMM*%
%LPD*%
G01*
G04 APERTURE LIST*
%ADD10C,1.902776*%
%ADD11C,3.301562*%
%ADD12C,0.200000*%
%ADD13C,0.300000*%
%ADD14C,0.500000*%
%ADD15C,0.150000*%
%ADD16C,0.120000*%
G04 APERTURE END LIST*
D10*
X165451388Y-126500000D02*
G75*
G02*
X163548612Y-126500000I-951388J0D01*
G01*
X163548612Y-126500000D02*
G75*
G02*
X165451388Y-126500000I951388J0D01*
G01*
D11*
X170650781Y-118000000D02*
G75*
G02*
X167349219Y-118000000I-1650781J0D01*
G01*
X167349219Y-118000000D02*
G75*
G02*
X170650781Y-118000000I1650781J0D01*
G01*
D12*
X132750000Y-114250000D02*
X137250000Y-114250000D01*
X137250000Y-116750000D01*
X132750000Y-116750000D01*
X132750000Y-114250000D01*
G36*
X132750000Y-114250000D02*
G01*
X137250000Y-114250000D01*
X137250000Y-116750000D01*
X132750000Y-116750000D01*
X132750000Y-114250000D01*
G37*
X134750000Y-114250000D02*
X137250000Y-114250000D01*
X137250000Y-118750000D01*
X134750000Y-118750000D01*
X134750000Y-114250000D01*
G36*
X134750000Y-114250000D02*
G01*
X137250000Y-114250000D01*
X137250000Y-118750000D01*
X134750000Y-118750000D01*
X134750000Y-114250000D01*
G37*
X134750000Y-114250000D02*
X139250000Y-114250000D01*
X139250000Y-116750000D01*
X134750000Y-116750000D01*
X134750000Y-114250000D01*
G36*
X134750000Y-114250000D02*
G01*
X139250000Y-114250000D01*
X139250000Y-116750000D01*
X134750000Y-116750000D01*
X134750000Y-114250000D01*
G37*
X134750000Y-112250000D02*
X137250000Y-112250000D01*
X137250000Y-116750000D01*
X134750000Y-116750000D01*
X134750000Y-112250000D01*
G36*
X134750000Y-112250000D02*
G01*
X137250000Y-112250000D01*
X137250000Y-116750000D01*
X134750000Y-116750000D01*
X134750000Y-112250000D01*
G37*
D13*
X142983082Y-89800828D02*
X142983082Y-90872257D01*
X142983082Y-90872257D02*
X142911653Y-91086542D01*
X142911653Y-91086542D02*
X142768796Y-91229400D01*
X142768796Y-91229400D02*
X142554510Y-91300828D01*
X142554510Y-91300828D02*
X142411653Y-91300828D01*
X143697367Y-89800828D02*
X143697367Y-91015114D01*
X143697367Y-91015114D02*
X143768796Y-91157971D01*
X143768796Y-91157971D02*
X143840225Y-91229400D01*
X143840225Y-91229400D02*
X143983082Y-91300828D01*
X143983082Y-91300828D02*
X144268796Y-91300828D01*
X144268796Y-91300828D02*
X144411653Y-91229400D01*
X144411653Y-91229400D02*
X144483082Y-91157971D01*
X144483082Y-91157971D02*
X144554510Y-91015114D01*
X144554510Y-91015114D02*
X144554510Y-89800828D01*
X145268796Y-91300828D02*
X145268796Y-89800828D01*
X146840225Y-91157971D02*
X146768797Y-91229400D01*
X146768797Y-91229400D02*
X146554511Y-91300828D01*
X146554511Y-91300828D02*
X146411654Y-91300828D01*
X146411654Y-91300828D02*
X146197368Y-91229400D01*
X146197368Y-91229400D02*
X146054511Y-91086542D01*
X146054511Y-91086542D02*
X145983082Y-90943685D01*
X145983082Y-90943685D02*
X145911654Y-90657971D01*
X145911654Y-90657971D02*
X145911654Y-90443685D01*
X145911654Y-90443685D02*
X145983082Y-90157971D01*
X145983082Y-90157971D02*
X146054511Y-90015114D01*
X146054511Y-90015114D02*
X146197368Y-89872257D01*
X146197368Y-89872257D02*
X146411654Y-89800828D01*
X146411654Y-89800828D02*
X146554511Y-89800828D01*
X146554511Y-89800828D02*
X146768797Y-89872257D01*
X146768797Y-89872257D02*
X146840225Y-89943685D01*
X147483082Y-90515114D02*
X147983082Y-90515114D01*
X148197368Y-91300828D02*
X147483082Y-91300828D01*
X147483082Y-91300828D02*
X147483082Y-89800828D01*
X147483082Y-89800828D02*
X148197368Y-89800828D01*
X149911654Y-91229400D02*
X150125940Y-91300828D01*
X150125940Y-91300828D02*
X150483082Y-91300828D01*
X150483082Y-91300828D02*
X150625940Y-91229400D01*
X150625940Y-91229400D02*
X150697368Y-91157971D01*
X150697368Y-91157971D02*
X150768797Y-91015114D01*
X150768797Y-91015114D02*
X150768797Y-90872257D01*
X150768797Y-90872257D02*
X150697368Y-90729400D01*
X150697368Y-90729400D02*
X150625940Y-90657971D01*
X150625940Y-90657971D02*
X150483082Y-90586542D01*
X150483082Y-90586542D02*
X150197368Y-90515114D01*
X150197368Y-90515114D02*
X150054511Y-90443685D01*
X150054511Y-90443685D02*
X149983082Y-90372257D01*
X149983082Y-90372257D02*
X149911654Y-90229400D01*
X149911654Y-90229400D02*
X149911654Y-90086542D01*
X149911654Y-90086542D02*
X149983082Y-89943685D01*
X149983082Y-89943685D02*
X150054511Y-89872257D01*
X150054511Y-89872257D02*
X150197368Y-89800828D01*
X150197368Y-89800828D02*
X150554511Y-89800828D01*
X150554511Y-89800828D02*
X150768797Y-89872257D01*
X151411653Y-91300828D02*
X151411653Y-89800828D01*
X151411653Y-90515114D02*
X152268796Y-90515114D01*
X152268796Y-91300828D02*
X152268796Y-89800828D01*
X152911654Y-90872257D02*
X153625940Y-90872257D01*
X152768797Y-91300828D02*
X153268797Y-89800828D01*
X153268797Y-89800828D02*
X153768797Y-91300828D01*
X154268796Y-91300828D02*
X154268796Y-89800828D01*
X154268796Y-89800828D02*
X155125939Y-91300828D01*
X155125939Y-91300828D02*
X155125939Y-89800828D01*
X156625940Y-89872257D02*
X156483083Y-89800828D01*
X156483083Y-89800828D02*
X156268797Y-89800828D01*
X156268797Y-89800828D02*
X156054511Y-89872257D01*
X156054511Y-89872257D02*
X155911654Y-90015114D01*
X155911654Y-90015114D02*
X155840225Y-90157971D01*
X155840225Y-90157971D02*
X155768797Y-90443685D01*
X155768797Y-90443685D02*
X155768797Y-90657971D01*
X155768797Y-90657971D02*
X155840225Y-90943685D01*
X155840225Y-90943685D02*
X155911654Y-91086542D01*
X155911654Y-91086542D02*
X156054511Y-91229400D01*
X156054511Y-91229400D02*
X156268797Y-91300828D01*
X156268797Y-91300828D02*
X156411654Y-91300828D01*
X156411654Y-91300828D02*
X156625940Y-91229400D01*
X156625940Y-91229400D02*
X156697368Y-91157971D01*
X156697368Y-91157971D02*
X156697368Y-90657971D01*
X156697368Y-90657971D02*
X156411654Y-90657971D01*
X157340225Y-91300828D02*
X157340225Y-89800828D01*
X157340225Y-90515114D02*
X158197368Y-90515114D01*
X158197368Y-91300828D02*
X158197368Y-89800828D01*
X158840226Y-90872257D02*
X159554512Y-90872257D01*
X158697369Y-91300828D02*
X159197369Y-89800828D01*
X159197369Y-89800828D02*
X159697369Y-91300828D01*
X160197368Y-91300828D02*
X160197368Y-89800828D01*
D14*
X130500000Y-72000000D02*
X172000000Y-72000000D01*
X172000000Y-86500000D01*
X130500000Y-86500000D01*
X130500000Y-72000000D01*
D13*
X132964285Y-76127509D02*
X133678571Y-76127509D01*
X132821428Y-76556080D02*
X133321428Y-75056080D01*
X133321428Y-75056080D02*
X133821428Y-76556080D01*
X134964285Y-76484652D02*
X134821427Y-76556080D01*
X134821427Y-76556080D02*
X134535713Y-76556080D01*
X134535713Y-76556080D02*
X134392856Y-76484652D01*
X134392856Y-76484652D02*
X134321427Y-76413223D01*
X134321427Y-76413223D02*
X134249999Y-76270366D01*
X134249999Y-76270366D02*
X134249999Y-75841794D01*
X134249999Y-75841794D02*
X134321427Y-75698937D01*
X134321427Y-75698937D02*
X134392856Y-75627509D01*
X134392856Y-75627509D02*
X134535713Y-75556080D01*
X134535713Y-75556080D02*
X134821427Y-75556080D01*
X134821427Y-75556080D02*
X134964285Y-75627509D01*
X135821427Y-76556080D02*
X135678570Y-76484652D01*
X135678570Y-76484652D02*
X135607141Y-76413223D01*
X135607141Y-76413223D02*
X135535713Y-76270366D01*
X135535713Y-76270366D02*
X135535713Y-75841794D01*
X135535713Y-75841794D02*
X135607141Y-75698937D01*
X135607141Y-75698937D02*
X135678570Y-75627509D01*
X135678570Y-75627509D02*
X135821427Y-75556080D01*
X135821427Y-75556080D02*
X136035713Y-75556080D01*
X136035713Y-75556080D02*
X136178570Y-75627509D01*
X136178570Y-75627509D02*
X136249999Y-75698937D01*
X136249999Y-75698937D02*
X136321427Y-75841794D01*
X136321427Y-75841794D02*
X136321427Y-76270366D01*
X136321427Y-76270366D02*
X136249999Y-76413223D01*
X136249999Y-76413223D02*
X136178570Y-76484652D01*
X136178570Y-76484652D02*
X136035713Y-76556080D01*
X136035713Y-76556080D02*
X135821427Y-76556080D01*
X136964284Y-75556080D02*
X136964284Y-76556080D01*
X136964284Y-75698937D02*
X137035713Y-75627509D01*
X137035713Y-75627509D02*
X137178570Y-75556080D01*
X137178570Y-75556080D02*
X137392856Y-75556080D01*
X137392856Y-75556080D02*
X137535713Y-75627509D01*
X137535713Y-75627509D02*
X137607142Y-75770366D01*
X137607142Y-75770366D02*
X137607142Y-76556080D01*
X139464284Y-76556080D02*
X139464284Y-75056080D01*
X139464284Y-75056080D02*
X139964284Y-76127509D01*
X139964284Y-76127509D02*
X140464284Y-75056080D01*
X140464284Y-75056080D02*
X140464284Y-76556080D01*
X141821428Y-76556080D02*
X141821428Y-75770366D01*
X141821428Y-75770366D02*
X141749999Y-75627509D01*
X141749999Y-75627509D02*
X141607142Y-75556080D01*
X141607142Y-75556080D02*
X141321428Y-75556080D01*
X141321428Y-75556080D02*
X141178570Y-75627509D01*
X141821428Y-76484652D02*
X141678570Y-76556080D01*
X141678570Y-76556080D02*
X141321428Y-76556080D01*
X141321428Y-76556080D02*
X141178570Y-76484652D01*
X141178570Y-76484652D02*
X141107142Y-76341794D01*
X141107142Y-76341794D02*
X141107142Y-76198937D01*
X141107142Y-76198937D02*
X141178570Y-76056080D01*
X141178570Y-76056080D02*
X141321428Y-75984652D01*
X141321428Y-75984652D02*
X141678570Y-75984652D01*
X141678570Y-75984652D02*
X141821428Y-75913223D01*
X142392856Y-76556080D02*
X143178571Y-75556080D01*
X142392856Y-75556080D02*
X143178571Y-76556080D01*
X143749999Y-76556080D02*
X143749999Y-75556080D01*
X143749999Y-75056080D02*
X143678571Y-75127509D01*
X143678571Y-75127509D02*
X143749999Y-75198937D01*
X143749999Y-75198937D02*
X143821428Y-75127509D01*
X143821428Y-75127509D02*
X143749999Y-75056080D01*
X143749999Y-75056080D02*
X143749999Y-75198937D01*
X144464285Y-76556080D02*
X144464285Y-75556080D01*
X144464285Y-75698937D02*
X144535714Y-75627509D01*
X144535714Y-75627509D02*
X144678571Y-75556080D01*
X144678571Y-75556080D02*
X144892857Y-75556080D01*
X144892857Y-75556080D02*
X145035714Y-75627509D01*
X145035714Y-75627509D02*
X145107143Y-75770366D01*
X145107143Y-75770366D02*
X145107143Y-76556080D01*
X145107143Y-75770366D02*
X145178571Y-75627509D01*
X145178571Y-75627509D02*
X145321428Y-75556080D01*
X145321428Y-75556080D02*
X145535714Y-75556080D01*
X145535714Y-75556080D02*
X145678571Y-75627509D01*
X145678571Y-75627509D02*
X145750000Y-75770366D01*
X145750000Y-75770366D02*
X145750000Y-76556080D01*
X146464285Y-76556080D02*
X146464285Y-75556080D01*
X146464285Y-75056080D02*
X146392857Y-75127509D01*
X146392857Y-75127509D02*
X146464285Y-75198937D01*
X146464285Y-75198937D02*
X146535714Y-75127509D01*
X146535714Y-75127509D02*
X146464285Y-75056080D01*
X146464285Y-75056080D02*
X146464285Y-75198937D01*
X147392857Y-76556080D02*
X147250000Y-76484652D01*
X147250000Y-76484652D02*
X147178571Y-76341794D01*
X147178571Y-76341794D02*
X147178571Y-75056080D01*
X147964285Y-76556080D02*
X147964285Y-75556080D01*
X147964285Y-75056080D02*
X147892857Y-75127509D01*
X147892857Y-75127509D02*
X147964285Y-75198937D01*
X147964285Y-75198937D02*
X148035714Y-75127509D01*
X148035714Y-75127509D02*
X147964285Y-75056080D01*
X147964285Y-75056080D02*
X147964285Y-75198937D01*
X149321429Y-76556080D02*
X149321429Y-75770366D01*
X149321429Y-75770366D02*
X149250000Y-75627509D01*
X149250000Y-75627509D02*
X149107143Y-75556080D01*
X149107143Y-75556080D02*
X148821429Y-75556080D01*
X148821429Y-75556080D02*
X148678571Y-75627509D01*
X149321429Y-76484652D02*
X149178571Y-76556080D01*
X149178571Y-76556080D02*
X148821429Y-76556080D01*
X148821429Y-76556080D02*
X148678571Y-76484652D01*
X148678571Y-76484652D02*
X148607143Y-76341794D01*
X148607143Y-76341794D02*
X148607143Y-76198937D01*
X148607143Y-76198937D02*
X148678571Y-76056080D01*
X148678571Y-76056080D02*
X148821429Y-75984652D01*
X148821429Y-75984652D02*
X149178571Y-75984652D01*
X149178571Y-75984652D02*
X149321429Y-75913223D01*
X150035714Y-75556080D02*
X150035714Y-76556080D01*
X150035714Y-75698937D02*
X150107143Y-75627509D01*
X150107143Y-75627509D02*
X150250000Y-75556080D01*
X150250000Y-75556080D02*
X150464286Y-75556080D01*
X150464286Y-75556080D02*
X150607143Y-75627509D01*
X150607143Y-75627509D02*
X150678572Y-75770366D01*
X150678572Y-75770366D02*
X150678572Y-76556080D01*
X152464286Y-76127509D02*
X153178572Y-76127509D01*
X152321429Y-76556080D02*
X152821429Y-75056080D01*
X152821429Y-75056080D02*
X153321429Y-76556080D01*
X153821428Y-76556080D02*
X153821428Y-75556080D01*
X153821428Y-75841794D02*
X153892857Y-75698937D01*
X153892857Y-75698937D02*
X153964286Y-75627509D01*
X153964286Y-75627509D02*
X154107143Y-75556080D01*
X154107143Y-75556080D02*
X154250000Y-75556080D01*
X154749999Y-76556080D02*
X154749999Y-75556080D01*
X154749999Y-75698937D02*
X154821428Y-75627509D01*
X154821428Y-75627509D02*
X154964285Y-75556080D01*
X154964285Y-75556080D02*
X155178571Y-75556080D01*
X155178571Y-75556080D02*
X155321428Y-75627509D01*
X155321428Y-75627509D02*
X155392857Y-75770366D01*
X155392857Y-75770366D02*
X155392857Y-76556080D01*
X155392857Y-75770366D02*
X155464285Y-75627509D01*
X155464285Y-75627509D02*
X155607142Y-75556080D01*
X155607142Y-75556080D02*
X155821428Y-75556080D01*
X155821428Y-75556080D02*
X155964285Y-75627509D01*
X155964285Y-75627509D02*
X156035714Y-75770366D01*
X156035714Y-75770366D02*
X156035714Y-76556080D01*
X157392857Y-76556080D02*
X157392857Y-75770366D01*
X157392857Y-75770366D02*
X157321428Y-75627509D01*
X157321428Y-75627509D02*
X157178571Y-75556080D01*
X157178571Y-75556080D02*
X156892857Y-75556080D01*
X156892857Y-75556080D02*
X156749999Y-75627509D01*
X157392857Y-76484652D02*
X157249999Y-76556080D01*
X157249999Y-76556080D02*
X156892857Y-76556080D01*
X156892857Y-76556080D02*
X156749999Y-76484652D01*
X156749999Y-76484652D02*
X156678571Y-76341794D01*
X156678571Y-76341794D02*
X156678571Y-76198937D01*
X156678571Y-76198937D02*
X156749999Y-76056080D01*
X156749999Y-76056080D02*
X156892857Y-75984652D01*
X156892857Y-75984652D02*
X157249999Y-75984652D01*
X157249999Y-75984652D02*
X157392857Y-75913223D01*
X158750000Y-76556080D02*
X158750000Y-75056080D01*
X158750000Y-76484652D02*
X158607142Y-76556080D01*
X158607142Y-76556080D02*
X158321428Y-76556080D01*
X158321428Y-76556080D02*
X158178571Y-76484652D01*
X158178571Y-76484652D02*
X158107142Y-76413223D01*
X158107142Y-76413223D02*
X158035714Y-76270366D01*
X158035714Y-76270366D02*
X158035714Y-75841794D01*
X158035714Y-75841794D02*
X158107142Y-75698937D01*
X158107142Y-75698937D02*
X158178571Y-75627509D01*
X158178571Y-75627509D02*
X158321428Y-75556080D01*
X158321428Y-75556080D02*
X158607142Y-75556080D01*
X158607142Y-75556080D02*
X158750000Y-75627509D01*
X161321428Y-76556080D02*
X160607142Y-76556080D01*
X160607142Y-76556080D02*
X160607142Y-75056080D01*
X162464286Y-75556080D02*
X162464286Y-76556080D01*
X161821428Y-75556080D02*
X161821428Y-76341794D01*
X161821428Y-76341794D02*
X161892857Y-76484652D01*
X161892857Y-76484652D02*
X162035714Y-76556080D01*
X162035714Y-76556080D02*
X162250000Y-76556080D01*
X162250000Y-76556080D02*
X162392857Y-76484652D01*
X162392857Y-76484652D02*
X162464286Y-76413223D01*
X163821429Y-76484652D02*
X163678571Y-76556080D01*
X163678571Y-76556080D02*
X163392857Y-76556080D01*
X163392857Y-76556080D02*
X163250000Y-76484652D01*
X163250000Y-76484652D02*
X163178571Y-76413223D01*
X163178571Y-76413223D02*
X163107143Y-76270366D01*
X163107143Y-76270366D02*
X163107143Y-75841794D01*
X163107143Y-75841794D02*
X163178571Y-75698937D01*
X163178571Y-75698937D02*
X163250000Y-75627509D01*
X163250000Y-75627509D02*
X163392857Y-75556080D01*
X163392857Y-75556080D02*
X163678571Y-75556080D01*
X163678571Y-75556080D02*
X163821429Y-75627509D01*
X165107143Y-76556080D02*
X165107143Y-75770366D01*
X165107143Y-75770366D02*
X165035714Y-75627509D01*
X165035714Y-75627509D02*
X164892857Y-75556080D01*
X164892857Y-75556080D02*
X164607143Y-75556080D01*
X164607143Y-75556080D02*
X164464285Y-75627509D01*
X165107143Y-76484652D02*
X164964285Y-76556080D01*
X164964285Y-76556080D02*
X164607143Y-76556080D01*
X164607143Y-76556080D02*
X164464285Y-76484652D01*
X164464285Y-76484652D02*
X164392857Y-76341794D01*
X164392857Y-76341794D02*
X164392857Y-76198937D01*
X164392857Y-76198937D02*
X164464285Y-76056080D01*
X164464285Y-76056080D02*
X164607143Y-75984652D01*
X164607143Y-75984652D02*
X164964285Y-75984652D01*
X164964285Y-75984652D02*
X165107143Y-75913223D01*
X166964285Y-76556080D02*
X166964285Y-75056080D01*
X167821428Y-76556080D02*
X167178571Y-75698937D01*
X167821428Y-75056080D02*
X166964285Y-75913223D01*
X169107143Y-76556080D02*
X169107143Y-75770366D01*
X169107143Y-75770366D02*
X169035714Y-75627509D01*
X169035714Y-75627509D02*
X168892857Y-75556080D01*
X168892857Y-75556080D02*
X168607143Y-75556080D01*
X168607143Y-75556080D02*
X168464285Y-75627509D01*
X169107143Y-76484652D02*
X168964285Y-76556080D01*
X168964285Y-76556080D02*
X168607143Y-76556080D01*
X168607143Y-76556080D02*
X168464285Y-76484652D01*
X168464285Y-76484652D02*
X168392857Y-76341794D01*
X168392857Y-76341794D02*
X168392857Y-76198937D01*
X168392857Y-76198937D02*
X168464285Y-76056080D01*
X168464285Y-76056080D02*
X168607143Y-75984652D01*
X168607143Y-75984652D02*
X168964285Y-75984652D01*
X168964285Y-75984652D02*
X169107143Y-75913223D01*
X169821428Y-76556080D02*
X169821428Y-75556080D01*
X169821428Y-75056080D02*
X169750000Y-75127509D01*
X169750000Y-75127509D02*
X169821428Y-75198937D01*
X169821428Y-75198937D02*
X169892857Y-75127509D01*
X169892857Y-75127509D02*
X169821428Y-75056080D01*
X169821428Y-75056080D02*
X169821428Y-75198937D01*
X134857142Y-78185282D02*
X135071428Y-78256710D01*
X135071428Y-78256710D02*
X135142857Y-78328139D01*
X135142857Y-78328139D02*
X135214285Y-78470996D01*
X135214285Y-78470996D02*
X135214285Y-78685282D01*
X135214285Y-78685282D02*
X135142857Y-78828139D01*
X135142857Y-78828139D02*
X135071428Y-78899568D01*
X135071428Y-78899568D02*
X134928571Y-78970996D01*
X134928571Y-78970996D02*
X134357142Y-78970996D01*
X134357142Y-78970996D02*
X134357142Y-77470996D01*
X134357142Y-77470996D02*
X134857142Y-77470996D01*
X134857142Y-77470996D02*
X135000000Y-77542425D01*
X135000000Y-77542425D02*
X135071428Y-77613853D01*
X135071428Y-77613853D02*
X135142857Y-77756710D01*
X135142857Y-77756710D02*
X135142857Y-77899568D01*
X135142857Y-77899568D02*
X135071428Y-78042425D01*
X135071428Y-78042425D02*
X135000000Y-78113853D01*
X135000000Y-78113853D02*
X134857142Y-78185282D01*
X134857142Y-78185282D02*
X134357142Y-78185282D01*
X135857142Y-78970996D02*
X135857142Y-77970996D01*
X135857142Y-78256710D02*
X135928571Y-78113853D01*
X135928571Y-78113853D02*
X136000000Y-78042425D01*
X136000000Y-78042425D02*
X136142857Y-77970996D01*
X136142857Y-77970996D02*
X136285714Y-77970996D01*
X136785713Y-78970996D02*
X136785713Y-77970996D01*
X136785713Y-77470996D02*
X136714285Y-77542425D01*
X136714285Y-77542425D02*
X136785713Y-77613853D01*
X136785713Y-77613853D02*
X136857142Y-77542425D01*
X136857142Y-77542425D02*
X136785713Y-77470996D01*
X136785713Y-77470996D02*
X136785713Y-77613853D01*
X137357142Y-77970996D02*
X137714285Y-78970996D01*
X138071428Y-77970996D02*
X137714285Y-78970996D01*
X137714285Y-78970996D02*
X137571428Y-79328139D01*
X137571428Y-79328139D02*
X137499999Y-79399568D01*
X137499999Y-79399568D02*
X137357142Y-79470996D01*
X139285714Y-78970996D02*
X139285714Y-78185282D01*
X139285714Y-78185282D02*
X139214285Y-78042425D01*
X139214285Y-78042425D02*
X139071428Y-77970996D01*
X139071428Y-77970996D02*
X138785714Y-77970996D01*
X138785714Y-77970996D02*
X138642856Y-78042425D01*
X139285714Y-78899568D02*
X139142856Y-78970996D01*
X139142856Y-78970996D02*
X138785714Y-78970996D01*
X138785714Y-78970996D02*
X138642856Y-78899568D01*
X138642856Y-78899568D02*
X138571428Y-78756710D01*
X138571428Y-78756710D02*
X138571428Y-78613853D01*
X138571428Y-78613853D02*
X138642856Y-78470996D01*
X138642856Y-78470996D02*
X138785714Y-78399568D01*
X138785714Y-78399568D02*
X139142856Y-78399568D01*
X139142856Y-78399568D02*
X139285714Y-78328139D01*
X139999999Y-77970996D02*
X139999999Y-78970996D01*
X139999999Y-78113853D02*
X140071428Y-78042425D01*
X140071428Y-78042425D02*
X140214285Y-77970996D01*
X140214285Y-77970996D02*
X140428571Y-77970996D01*
X140428571Y-77970996D02*
X140571428Y-78042425D01*
X140571428Y-78042425D02*
X140642857Y-78185282D01*
X140642857Y-78185282D02*
X140642857Y-78970996D01*
X142428571Y-78899568D02*
X142642857Y-78970996D01*
X142642857Y-78970996D02*
X142999999Y-78970996D01*
X142999999Y-78970996D02*
X143142857Y-78899568D01*
X143142857Y-78899568D02*
X143214285Y-78828139D01*
X143214285Y-78828139D02*
X143285714Y-78685282D01*
X143285714Y-78685282D02*
X143285714Y-78542425D01*
X143285714Y-78542425D02*
X143214285Y-78399568D01*
X143214285Y-78399568D02*
X143142857Y-78328139D01*
X143142857Y-78328139D02*
X142999999Y-78256710D01*
X142999999Y-78256710D02*
X142714285Y-78185282D01*
X142714285Y-78185282D02*
X142571428Y-78113853D01*
X142571428Y-78113853D02*
X142499999Y-78042425D01*
X142499999Y-78042425D02*
X142428571Y-77899568D01*
X142428571Y-77899568D02*
X142428571Y-77756710D01*
X142428571Y-77756710D02*
X142499999Y-77613853D01*
X142499999Y-77613853D02*
X142571428Y-77542425D01*
X142571428Y-77542425D02*
X142714285Y-77470996D01*
X142714285Y-77470996D02*
X143071428Y-77470996D01*
X143071428Y-77470996D02*
X143285714Y-77542425D01*
X144571428Y-77970996D02*
X144571428Y-78970996D01*
X143928570Y-77970996D02*
X143928570Y-78756710D01*
X143928570Y-78756710D02*
X143999999Y-78899568D01*
X143999999Y-78899568D02*
X144142856Y-78970996D01*
X144142856Y-78970996D02*
X144357142Y-78970996D01*
X144357142Y-78970996D02*
X144499999Y-78899568D01*
X144499999Y-78899568D02*
X144571428Y-78828139D01*
X145285713Y-77970996D02*
X145285713Y-78970996D01*
X145285713Y-78113853D02*
X145357142Y-78042425D01*
X145357142Y-78042425D02*
X145499999Y-77970996D01*
X145499999Y-77970996D02*
X145714285Y-77970996D01*
X145714285Y-77970996D02*
X145857142Y-78042425D01*
X145857142Y-78042425D02*
X145928571Y-78185282D01*
X145928571Y-78185282D02*
X145928571Y-78970996D01*
X146642856Y-77970996D02*
X146642856Y-78970996D01*
X146642856Y-78113853D02*
X146714285Y-78042425D01*
X146714285Y-78042425D02*
X146857142Y-77970996D01*
X146857142Y-77970996D02*
X147071428Y-77970996D01*
X147071428Y-77970996D02*
X147214285Y-78042425D01*
X147214285Y-78042425D02*
X147285714Y-78185282D01*
X147285714Y-78185282D02*
X147285714Y-78970996D01*
X147999999Y-78970996D02*
X147999999Y-77970996D01*
X147999999Y-77470996D02*
X147928571Y-77542425D01*
X147928571Y-77542425D02*
X147999999Y-77613853D01*
X147999999Y-77613853D02*
X148071428Y-77542425D01*
X148071428Y-77542425D02*
X147999999Y-77470996D01*
X147999999Y-77470996D02*
X147999999Y-77613853D01*
X150285714Y-77470996D02*
X150285714Y-78542425D01*
X150285714Y-78542425D02*
X150214285Y-78756710D01*
X150214285Y-78756710D02*
X150071428Y-78899568D01*
X150071428Y-78899568D02*
X149857142Y-78970996D01*
X149857142Y-78970996D02*
X149714285Y-78970996D01*
X151214285Y-78970996D02*
X151071428Y-78899568D01*
X151071428Y-78899568D02*
X150999999Y-78828139D01*
X150999999Y-78828139D02*
X150928571Y-78685282D01*
X150928571Y-78685282D02*
X150928571Y-78256710D01*
X150928571Y-78256710D02*
X150999999Y-78113853D01*
X150999999Y-78113853D02*
X151071428Y-78042425D01*
X151071428Y-78042425D02*
X151214285Y-77970996D01*
X151214285Y-77970996D02*
X151428571Y-77970996D01*
X151428571Y-77970996D02*
X151571428Y-78042425D01*
X151571428Y-78042425D02*
X151642857Y-78113853D01*
X151642857Y-78113853D02*
X151714285Y-78256710D01*
X151714285Y-78256710D02*
X151714285Y-78685282D01*
X151714285Y-78685282D02*
X151642857Y-78828139D01*
X151642857Y-78828139D02*
X151571428Y-78899568D01*
X151571428Y-78899568D02*
X151428571Y-78970996D01*
X151428571Y-78970996D02*
X151214285Y-78970996D01*
X152928571Y-78899568D02*
X152785714Y-78970996D01*
X152785714Y-78970996D02*
X152500000Y-78970996D01*
X152500000Y-78970996D02*
X152357142Y-78899568D01*
X152357142Y-78899568D02*
X152285714Y-78756710D01*
X152285714Y-78756710D02*
X152285714Y-78185282D01*
X152285714Y-78185282D02*
X152357142Y-78042425D01*
X152357142Y-78042425D02*
X152500000Y-77970996D01*
X152500000Y-77970996D02*
X152785714Y-77970996D01*
X152785714Y-77970996D02*
X152928571Y-78042425D01*
X152928571Y-78042425D02*
X153000000Y-78185282D01*
X153000000Y-78185282D02*
X153000000Y-78328139D01*
X153000000Y-78328139D02*
X152285714Y-78470996D01*
X153857142Y-78970996D02*
X153714285Y-78899568D01*
X153714285Y-78899568D02*
X153642856Y-78756710D01*
X153642856Y-78756710D02*
X153642856Y-77470996D01*
X155571427Y-78970996D02*
X155571427Y-77470996D01*
X156928571Y-78970996D02*
X156928571Y-78185282D01*
X156928571Y-78185282D02*
X156857142Y-78042425D01*
X156857142Y-78042425D02*
X156714285Y-77970996D01*
X156714285Y-77970996D02*
X156428571Y-77970996D01*
X156428571Y-77970996D02*
X156285713Y-78042425D01*
X156928571Y-78899568D02*
X156785713Y-78970996D01*
X156785713Y-78970996D02*
X156428571Y-78970996D01*
X156428571Y-78970996D02*
X156285713Y-78899568D01*
X156285713Y-78899568D02*
X156214285Y-78756710D01*
X156214285Y-78756710D02*
X156214285Y-78613853D01*
X156214285Y-78613853D02*
X156285713Y-78470996D01*
X156285713Y-78470996D02*
X156428571Y-78399568D01*
X156428571Y-78399568D02*
X156785713Y-78399568D01*
X156785713Y-78399568D02*
X156928571Y-78328139D01*
X157571428Y-78899568D02*
X157714285Y-78970996D01*
X157714285Y-78970996D02*
X157999999Y-78970996D01*
X157999999Y-78970996D02*
X158142856Y-78899568D01*
X158142856Y-78899568D02*
X158214285Y-78756710D01*
X158214285Y-78756710D02*
X158214285Y-78685282D01*
X158214285Y-78685282D02*
X158142856Y-78542425D01*
X158142856Y-78542425D02*
X157999999Y-78470996D01*
X157999999Y-78470996D02*
X157785714Y-78470996D01*
X157785714Y-78470996D02*
X157642856Y-78399568D01*
X157642856Y-78399568D02*
X157571428Y-78256710D01*
X157571428Y-78256710D02*
X157571428Y-78185282D01*
X157571428Y-78185282D02*
X157642856Y-78042425D01*
X157642856Y-78042425D02*
X157785714Y-77970996D01*
X157785714Y-77970996D02*
X157999999Y-77970996D01*
X157999999Y-77970996D02*
X158142856Y-78042425D01*
X158785714Y-78899568D02*
X158928571Y-78970996D01*
X158928571Y-78970996D02*
X159214285Y-78970996D01*
X159214285Y-78970996D02*
X159357142Y-78899568D01*
X159357142Y-78899568D02*
X159428571Y-78756710D01*
X159428571Y-78756710D02*
X159428571Y-78685282D01*
X159428571Y-78685282D02*
X159357142Y-78542425D01*
X159357142Y-78542425D02*
X159214285Y-78470996D01*
X159214285Y-78470996D02*
X159000000Y-78470996D01*
X159000000Y-78470996D02*
X158857142Y-78399568D01*
X158857142Y-78399568D02*
X158785714Y-78256710D01*
X158785714Y-78256710D02*
X158785714Y-78185282D01*
X158785714Y-78185282D02*
X158857142Y-78042425D01*
X158857142Y-78042425D02*
X159000000Y-77970996D01*
X159000000Y-77970996D02*
X159214285Y-77970996D01*
X159214285Y-77970996D02*
X159357142Y-78042425D01*
X160714286Y-78970996D02*
X160714286Y-78185282D01*
X160714286Y-78185282D02*
X160642857Y-78042425D01*
X160642857Y-78042425D02*
X160500000Y-77970996D01*
X160500000Y-77970996D02*
X160214286Y-77970996D01*
X160214286Y-77970996D02*
X160071428Y-78042425D01*
X160714286Y-78899568D02*
X160571428Y-78970996D01*
X160571428Y-78970996D02*
X160214286Y-78970996D01*
X160214286Y-78970996D02*
X160071428Y-78899568D01*
X160071428Y-78899568D02*
X160000000Y-78756710D01*
X160000000Y-78756710D02*
X160000000Y-78613853D01*
X160000000Y-78613853D02*
X160071428Y-78470996D01*
X160071428Y-78470996D02*
X160214286Y-78399568D01*
X160214286Y-78399568D02*
X160571428Y-78399568D01*
X160571428Y-78399568D02*
X160714286Y-78328139D01*
X162071429Y-78899568D02*
X161928571Y-78970996D01*
X161928571Y-78970996D02*
X161642857Y-78970996D01*
X161642857Y-78970996D02*
X161500000Y-78899568D01*
X161500000Y-78899568D02*
X161428571Y-78828139D01*
X161428571Y-78828139D02*
X161357143Y-78685282D01*
X161357143Y-78685282D02*
X161357143Y-78256710D01*
X161357143Y-78256710D02*
X161428571Y-78113853D01*
X161428571Y-78113853D02*
X161500000Y-78042425D01*
X161500000Y-78042425D02*
X161642857Y-77970996D01*
X161642857Y-77970996D02*
X161928571Y-77970996D01*
X161928571Y-77970996D02*
X162071429Y-78042425D01*
X164571428Y-78970996D02*
X163857142Y-78970996D01*
X163857142Y-78970996D02*
X163857142Y-77470996D01*
X165071428Y-78970996D02*
X165071428Y-77970996D01*
X165071428Y-77470996D02*
X165000000Y-77542425D01*
X165000000Y-77542425D02*
X165071428Y-77613853D01*
X165071428Y-77613853D02*
X165142857Y-77542425D01*
X165142857Y-77542425D02*
X165071428Y-77470996D01*
X165071428Y-77470996D02*
X165071428Y-77613853D01*
X165785714Y-77970996D02*
X165785714Y-78970996D01*
X165785714Y-78113853D02*
X165857143Y-78042425D01*
X165857143Y-78042425D02*
X166000000Y-77970996D01*
X166000000Y-77970996D02*
X166214286Y-77970996D01*
X166214286Y-77970996D02*
X166357143Y-78042425D01*
X166357143Y-78042425D02*
X166428572Y-78185282D01*
X166428572Y-78185282D02*
X166428572Y-78970996D01*
X167785715Y-77970996D02*
X167785715Y-79470996D01*
X167785715Y-78899568D02*
X167642857Y-78970996D01*
X167642857Y-78970996D02*
X167357143Y-78970996D01*
X167357143Y-78970996D02*
X167214286Y-78899568D01*
X167214286Y-78899568D02*
X167142857Y-78828139D01*
X167142857Y-78828139D02*
X167071429Y-78685282D01*
X167071429Y-78685282D02*
X167071429Y-78256710D01*
X167071429Y-78256710D02*
X167142857Y-78113853D01*
X167142857Y-78113853D02*
X167214286Y-78042425D01*
X167214286Y-78042425D02*
X167357143Y-77970996D01*
X167357143Y-77970996D02*
X167642857Y-77970996D01*
X167642857Y-77970996D02*
X167785715Y-78042425D01*
X168500000Y-78970996D02*
X168500000Y-77970996D01*
X168500000Y-77470996D02*
X168428572Y-77542425D01*
X168428572Y-77542425D02*
X168500000Y-77613853D01*
X168500000Y-77613853D02*
X168571429Y-77542425D01*
X168571429Y-77542425D02*
X168500000Y-77470996D01*
X168500000Y-77470996D02*
X168500000Y-77613853D01*
X136142857Y-81314484D02*
X136357143Y-81385912D01*
X136357143Y-81385912D02*
X136714285Y-81385912D01*
X136714285Y-81385912D02*
X136857143Y-81314484D01*
X136857143Y-81314484D02*
X136928571Y-81243055D01*
X136928571Y-81243055D02*
X137000000Y-81100198D01*
X137000000Y-81100198D02*
X137000000Y-80957341D01*
X137000000Y-80957341D02*
X136928571Y-80814484D01*
X136928571Y-80814484D02*
X136857143Y-80743055D01*
X136857143Y-80743055D02*
X136714285Y-80671626D01*
X136714285Y-80671626D02*
X136428571Y-80600198D01*
X136428571Y-80600198D02*
X136285714Y-80528769D01*
X136285714Y-80528769D02*
X136214285Y-80457341D01*
X136214285Y-80457341D02*
X136142857Y-80314484D01*
X136142857Y-80314484D02*
X136142857Y-80171626D01*
X136142857Y-80171626D02*
X136214285Y-80028769D01*
X136214285Y-80028769D02*
X136285714Y-79957341D01*
X136285714Y-79957341D02*
X136428571Y-79885912D01*
X136428571Y-79885912D02*
X136785714Y-79885912D01*
X136785714Y-79885912D02*
X137000000Y-79957341D01*
X137857142Y-81385912D02*
X137714285Y-81314484D01*
X137714285Y-81314484D02*
X137642856Y-81243055D01*
X137642856Y-81243055D02*
X137571428Y-81100198D01*
X137571428Y-81100198D02*
X137571428Y-80671626D01*
X137571428Y-80671626D02*
X137642856Y-80528769D01*
X137642856Y-80528769D02*
X137714285Y-80457341D01*
X137714285Y-80457341D02*
X137857142Y-80385912D01*
X137857142Y-80385912D02*
X138071428Y-80385912D01*
X138071428Y-80385912D02*
X138214285Y-80457341D01*
X138214285Y-80457341D02*
X138285714Y-80528769D01*
X138285714Y-80528769D02*
X138357142Y-80671626D01*
X138357142Y-80671626D02*
X138357142Y-81100198D01*
X138357142Y-81100198D02*
X138285714Y-81243055D01*
X138285714Y-81243055D02*
X138214285Y-81314484D01*
X138214285Y-81314484D02*
X138071428Y-81385912D01*
X138071428Y-81385912D02*
X137857142Y-81385912D01*
X138999999Y-80385912D02*
X138999999Y-81885912D01*
X138999999Y-80457341D02*
X139142857Y-80385912D01*
X139142857Y-80385912D02*
X139428571Y-80385912D01*
X139428571Y-80385912D02*
X139571428Y-80457341D01*
X139571428Y-80457341D02*
X139642857Y-80528769D01*
X139642857Y-80528769D02*
X139714285Y-80671626D01*
X139714285Y-80671626D02*
X139714285Y-81100198D01*
X139714285Y-81100198D02*
X139642857Y-81243055D01*
X139642857Y-81243055D02*
X139571428Y-81314484D01*
X139571428Y-81314484D02*
X139428571Y-81385912D01*
X139428571Y-81385912D02*
X139142857Y-81385912D01*
X139142857Y-81385912D02*
X138999999Y-81314484D01*
X140357142Y-81385912D02*
X140357142Y-79885912D01*
X141000000Y-81385912D02*
X141000000Y-80600198D01*
X141000000Y-80600198D02*
X140928571Y-80457341D01*
X140928571Y-80457341D02*
X140785714Y-80385912D01*
X140785714Y-80385912D02*
X140571428Y-80385912D01*
X140571428Y-80385912D02*
X140428571Y-80457341D01*
X140428571Y-80457341D02*
X140357142Y-80528769D01*
X141714285Y-81385912D02*
X141714285Y-80385912D01*
X141714285Y-79885912D02*
X141642857Y-79957341D01*
X141642857Y-79957341D02*
X141714285Y-80028769D01*
X141714285Y-80028769D02*
X141785714Y-79957341D01*
X141785714Y-79957341D02*
X141714285Y-79885912D01*
X141714285Y-79885912D02*
X141714285Y-80028769D01*
X143071429Y-81385912D02*
X143071429Y-80600198D01*
X143071429Y-80600198D02*
X143000000Y-80457341D01*
X143000000Y-80457341D02*
X142857143Y-80385912D01*
X142857143Y-80385912D02*
X142571429Y-80385912D01*
X142571429Y-80385912D02*
X142428571Y-80457341D01*
X143071429Y-81314484D02*
X142928571Y-81385912D01*
X142928571Y-81385912D02*
X142571429Y-81385912D01*
X142571429Y-81385912D02*
X142428571Y-81314484D01*
X142428571Y-81314484D02*
X142357143Y-81171626D01*
X142357143Y-81171626D02*
X142357143Y-81028769D01*
X142357143Y-81028769D02*
X142428571Y-80885912D01*
X142428571Y-80885912D02*
X142571429Y-80814484D01*
X142571429Y-80814484D02*
X142928571Y-80814484D01*
X142928571Y-80814484D02*
X143071429Y-80743055D01*
X144785714Y-79885912D02*
X145142857Y-81385912D01*
X145142857Y-81385912D02*
X145428571Y-80314484D01*
X145428571Y-80314484D02*
X145714286Y-81385912D01*
X145714286Y-81385912D02*
X146071429Y-79885912D01*
X146642857Y-81385912D02*
X146642857Y-80385912D01*
X146642857Y-79885912D02*
X146571429Y-79957341D01*
X146571429Y-79957341D02*
X146642857Y-80028769D01*
X146642857Y-80028769D02*
X146714286Y-79957341D01*
X146714286Y-79957341D02*
X146642857Y-79885912D01*
X146642857Y-79885912D02*
X146642857Y-80028769D01*
X147357143Y-81385912D02*
X147357143Y-79885912D01*
X147500001Y-80814484D02*
X147928572Y-81385912D01*
X147928572Y-80385912D02*
X147357143Y-80957341D01*
X148357144Y-80385912D02*
X148928572Y-80385912D01*
X148571429Y-79885912D02*
X148571429Y-81171626D01*
X148571429Y-81171626D02*
X148642858Y-81314484D01*
X148642858Y-81314484D02*
X148785715Y-81385912D01*
X148785715Y-81385912D02*
X148928572Y-81385912D01*
X149642858Y-81385912D02*
X149500001Y-81314484D01*
X149500001Y-81314484D02*
X149428572Y-81243055D01*
X149428572Y-81243055D02*
X149357144Y-81100198D01*
X149357144Y-81100198D02*
X149357144Y-80671626D01*
X149357144Y-80671626D02*
X149428572Y-80528769D01*
X149428572Y-80528769D02*
X149500001Y-80457341D01*
X149500001Y-80457341D02*
X149642858Y-80385912D01*
X149642858Y-80385912D02*
X149857144Y-80385912D01*
X149857144Y-80385912D02*
X150000001Y-80457341D01*
X150000001Y-80457341D02*
X150071430Y-80528769D01*
X150071430Y-80528769D02*
X150142858Y-80671626D01*
X150142858Y-80671626D02*
X150142858Y-81100198D01*
X150142858Y-81100198D02*
X150071430Y-81243055D01*
X150071430Y-81243055D02*
X150000001Y-81314484D01*
X150000001Y-81314484D02*
X149857144Y-81385912D01*
X149857144Y-81385912D02*
X149642858Y-81385912D01*
X150785715Y-81385912D02*
X150785715Y-80385912D01*
X150785715Y-80671626D02*
X150857144Y-80528769D01*
X150857144Y-80528769D02*
X150928573Y-80457341D01*
X150928573Y-80457341D02*
X151071430Y-80385912D01*
X151071430Y-80385912D02*
X151214287Y-80385912D01*
X153285715Y-79885912D02*
X153285715Y-80957341D01*
X153285715Y-80957341D02*
X153214286Y-81171626D01*
X153214286Y-81171626D02*
X153071429Y-81314484D01*
X153071429Y-81314484D02*
X152857143Y-81385912D01*
X152857143Y-81385912D02*
X152714286Y-81385912D01*
X154642858Y-80385912D02*
X154642858Y-81385912D01*
X154000000Y-80385912D02*
X154000000Y-81171626D01*
X154000000Y-81171626D02*
X154071429Y-81314484D01*
X154071429Y-81314484D02*
X154214286Y-81385912D01*
X154214286Y-81385912D02*
X154428572Y-81385912D01*
X154428572Y-81385912D02*
X154571429Y-81314484D01*
X154571429Y-81314484D02*
X154642858Y-81243055D01*
X155357143Y-80385912D02*
X155357143Y-81385912D01*
X155357143Y-80528769D02*
X155428572Y-80457341D01*
X155428572Y-80457341D02*
X155571429Y-80385912D01*
X155571429Y-80385912D02*
X155785715Y-80385912D01*
X155785715Y-80385912D02*
X155928572Y-80457341D01*
X155928572Y-80457341D02*
X156000001Y-80600198D01*
X156000001Y-80600198D02*
X156000001Y-81385912D01*
X156571429Y-80385912D02*
X156928572Y-81385912D01*
X157285715Y-80385912D02*
X156928572Y-81385912D01*
X156928572Y-81385912D02*
X156785715Y-81743055D01*
X156785715Y-81743055D02*
X156714286Y-81814484D01*
X156714286Y-81814484D02*
X156571429Y-81885912D01*
X158500001Y-81385912D02*
X158500001Y-80600198D01*
X158500001Y-80600198D02*
X158428572Y-80457341D01*
X158428572Y-80457341D02*
X158285715Y-80385912D01*
X158285715Y-80385912D02*
X158000001Y-80385912D01*
X158000001Y-80385912D02*
X157857143Y-80457341D01*
X158500001Y-81314484D02*
X158357143Y-81385912D01*
X158357143Y-81385912D02*
X158000001Y-81385912D01*
X158000001Y-81385912D02*
X157857143Y-81314484D01*
X157857143Y-81314484D02*
X157785715Y-81171626D01*
X157785715Y-81171626D02*
X157785715Y-81028769D01*
X157785715Y-81028769D02*
X157857143Y-80885912D01*
X157857143Y-80885912D02*
X158000001Y-80814484D01*
X158000001Y-80814484D02*
X158357143Y-80814484D01*
X158357143Y-80814484D02*
X158500001Y-80743055D01*
X160357143Y-80600198D02*
X160857143Y-80600198D01*
X161071429Y-81385912D02*
X160357143Y-81385912D01*
X160357143Y-81385912D02*
X160357143Y-79885912D01*
X160357143Y-79885912D02*
X161071429Y-79885912D01*
X161642858Y-81314484D02*
X161785715Y-81385912D01*
X161785715Y-81385912D02*
X162071429Y-81385912D01*
X162071429Y-81385912D02*
X162214286Y-81314484D01*
X162214286Y-81314484D02*
X162285715Y-81171626D01*
X162285715Y-81171626D02*
X162285715Y-81100198D01*
X162285715Y-81100198D02*
X162214286Y-80957341D01*
X162214286Y-80957341D02*
X162071429Y-80885912D01*
X162071429Y-80885912D02*
X161857144Y-80885912D01*
X161857144Y-80885912D02*
X161714286Y-80814484D01*
X161714286Y-80814484D02*
X161642858Y-80671626D01*
X161642858Y-80671626D02*
X161642858Y-80600198D01*
X161642858Y-80600198D02*
X161714286Y-80457341D01*
X161714286Y-80457341D02*
X161857144Y-80385912D01*
X161857144Y-80385912D02*
X162071429Y-80385912D01*
X162071429Y-80385912D02*
X162214286Y-80457341D01*
X162714287Y-80385912D02*
X163285715Y-80385912D01*
X162928572Y-79885912D02*
X162928572Y-81171626D01*
X162928572Y-81171626D02*
X163000001Y-81314484D01*
X163000001Y-81314484D02*
X163142858Y-81385912D01*
X163142858Y-81385912D02*
X163285715Y-81385912D01*
X163785715Y-81385912D02*
X163785715Y-79885912D01*
X164428573Y-81385912D02*
X164428573Y-80600198D01*
X164428573Y-80600198D02*
X164357144Y-80457341D01*
X164357144Y-80457341D02*
X164214287Y-80385912D01*
X164214287Y-80385912D02*
X164000001Y-80385912D01*
X164000001Y-80385912D02*
X163857144Y-80457341D01*
X163857144Y-80457341D02*
X163785715Y-80528769D01*
X165714287Y-81314484D02*
X165571430Y-81385912D01*
X165571430Y-81385912D02*
X165285716Y-81385912D01*
X165285716Y-81385912D02*
X165142858Y-81314484D01*
X165142858Y-81314484D02*
X165071430Y-81171626D01*
X165071430Y-81171626D02*
X165071430Y-80600198D01*
X165071430Y-80600198D02*
X165142858Y-80457341D01*
X165142858Y-80457341D02*
X165285716Y-80385912D01*
X165285716Y-80385912D02*
X165571430Y-80385912D01*
X165571430Y-80385912D02*
X165714287Y-80457341D01*
X165714287Y-80457341D02*
X165785716Y-80600198D01*
X165785716Y-80600198D02*
X165785716Y-80743055D01*
X165785716Y-80743055D02*
X165071430Y-80885912D01*
X166428572Y-81385912D02*
X166428572Y-80385912D01*
X166428572Y-80671626D02*
X166500001Y-80528769D01*
X166500001Y-80528769D02*
X166571430Y-80457341D01*
X166571430Y-80457341D02*
X166714287Y-80385912D01*
X166714287Y-80385912D02*
X166857144Y-80385912D01*
X142500000Y-83372257D02*
X143214286Y-83372257D01*
X142357143Y-83800828D02*
X142857143Y-82300828D01*
X142857143Y-82300828D02*
X143357143Y-83800828D01*
X144071428Y-83800828D02*
X143928571Y-83729400D01*
X143928571Y-83729400D02*
X143857142Y-83586542D01*
X143857142Y-83586542D02*
X143857142Y-82300828D01*
X144642856Y-83800828D02*
X144642856Y-82800828D01*
X144642856Y-82300828D02*
X144571428Y-82372257D01*
X144571428Y-82372257D02*
X144642856Y-82443685D01*
X144642856Y-82443685D02*
X144714285Y-82372257D01*
X144714285Y-82372257D02*
X144642856Y-82300828D01*
X144642856Y-82300828D02*
X144642856Y-82443685D01*
X146000000Y-83729400D02*
X145857142Y-83800828D01*
X145857142Y-83800828D02*
X145571428Y-83800828D01*
X145571428Y-83800828D02*
X145428571Y-83729400D01*
X145428571Y-83729400D02*
X145357142Y-83657971D01*
X145357142Y-83657971D02*
X145285714Y-83515114D01*
X145285714Y-83515114D02*
X145285714Y-83086542D01*
X145285714Y-83086542D02*
X145357142Y-82943685D01*
X145357142Y-82943685D02*
X145428571Y-82872257D01*
X145428571Y-82872257D02*
X145571428Y-82800828D01*
X145571428Y-82800828D02*
X145857142Y-82800828D01*
X145857142Y-82800828D02*
X146000000Y-82872257D01*
X147214285Y-83729400D02*
X147071428Y-83800828D01*
X147071428Y-83800828D02*
X146785714Y-83800828D01*
X146785714Y-83800828D02*
X146642856Y-83729400D01*
X146642856Y-83729400D02*
X146571428Y-83586542D01*
X146571428Y-83586542D02*
X146571428Y-83015114D01*
X146571428Y-83015114D02*
X146642856Y-82872257D01*
X146642856Y-82872257D02*
X146785714Y-82800828D01*
X146785714Y-82800828D02*
X147071428Y-82800828D01*
X147071428Y-82800828D02*
X147214285Y-82872257D01*
X147214285Y-82872257D02*
X147285714Y-83015114D01*
X147285714Y-83015114D02*
X147285714Y-83157971D01*
X147285714Y-83157971D02*
X146571428Y-83300828D01*
X149499999Y-82300828D02*
X149499999Y-83372257D01*
X149499999Y-83372257D02*
X149428570Y-83586542D01*
X149428570Y-83586542D02*
X149285713Y-83729400D01*
X149285713Y-83729400D02*
X149071427Y-83800828D01*
X149071427Y-83800828D02*
X148928570Y-83800828D01*
X150857142Y-82800828D02*
X150857142Y-83800828D01*
X150214284Y-82800828D02*
X150214284Y-83586542D01*
X150214284Y-83586542D02*
X150285713Y-83729400D01*
X150285713Y-83729400D02*
X150428570Y-83800828D01*
X150428570Y-83800828D02*
X150642856Y-83800828D01*
X150642856Y-83800828D02*
X150785713Y-83729400D01*
X150785713Y-83729400D02*
X150857142Y-83657971D01*
X151571427Y-82800828D02*
X151571427Y-83800828D01*
X151571427Y-82943685D02*
X151642856Y-82872257D01*
X151642856Y-82872257D02*
X151785713Y-82800828D01*
X151785713Y-82800828D02*
X151999999Y-82800828D01*
X151999999Y-82800828D02*
X152142856Y-82872257D01*
X152142856Y-82872257D02*
X152214285Y-83015114D01*
X152214285Y-83015114D02*
X152214285Y-83800828D01*
X153571428Y-83800828D02*
X153571428Y-83015114D01*
X153571428Y-83015114D02*
X153499999Y-82872257D01*
X153499999Y-82872257D02*
X153357142Y-82800828D01*
X153357142Y-82800828D02*
X153071428Y-82800828D01*
X153071428Y-82800828D02*
X152928570Y-82872257D01*
X153571428Y-83729400D02*
X153428570Y-83800828D01*
X153428570Y-83800828D02*
X153071428Y-83800828D01*
X153071428Y-83800828D02*
X152928570Y-83729400D01*
X152928570Y-83729400D02*
X152857142Y-83586542D01*
X152857142Y-83586542D02*
X152857142Y-83443685D01*
X152857142Y-83443685D02*
X152928570Y-83300828D01*
X152928570Y-83300828D02*
X153071428Y-83229400D01*
X153071428Y-83229400D02*
X153428570Y-83229400D01*
X153428570Y-83229400D02*
X153571428Y-83157971D01*
X154285713Y-83800828D02*
X154285713Y-82800828D01*
X154285713Y-82300828D02*
X154214285Y-82372257D01*
X154214285Y-82372257D02*
X154285713Y-82443685D01*
X154285713Y-82443685D02*
X154357142Y-82372257D01*
X154357142Y-82372257D02*
X154285713Y-82300828D01*
X154285713Y-82300828D02*
X154285713Y-82443685D01*
X155642857Y-83800828D02*
X155642857Y-82300828D01*
X155642857Y-83729400D02*
X155499999Y-83800828D01*
X155499999Y-83800828D02*
X155214285Y-83800828D01*
X155214285Y-83800828D02*
X155071428Y-83729400D01*
X155071428Y-83729400D02*
X154999999Y-83657971D01*
X154999999Y-83657971D02*
X154928571Y-83515114D01*
X154928571Y-83515114D02*
X154928571Y-83086542D01*
X154928571Y-83086542D02*
X154999999Y-82943685D01*
X154999999Y-82943685D02*
X155071428Y-82872257D01*
X155071428Y-82872257D02*
X155214285Y-82800828D01*
X155214285Y-82800828D02*
X155499999Y-82800828D01*
X155499999Y-82800828D02*
X155642857Y-82872257D01*
X157428571Y-83729400D02*
X157642857Y-83800828D01*
X157642857Y-83800828D02*
X157999999Y-83800828D01*
X157999999Y-83800828D02*
X158142857Y-83729400D01*
X158142857Y-83729400D02*
X158214285Y-83657971D01*
X158214285Y-83657971D02*
X158285714Y-83515114D01*
X158285714Y-83515114D02*
X158285714Y-83372257D01*
X158285714Y-83372257D02*
X158214285Y-83229400D01*
X158214285Y-83229400D02*
X158142857Y-83157971D01*
X158142857Y-83157971D02*
X157999999Y-83086542D01*
X157999999Y-83086542D02*
X157714285Y-83015114D01*
X157714285Y-83015114D02*
X157571428Y-82943685D01*
X157571428Y-82943685D02*
X157499999Y-82872257D01*
X157499999Y-82872257D02*
X157428571Y-82729400D01*
X157428571Y-82729400D02*
X157428571Y-82586542D01*
X157428571Y-82586542D02*
X157499999Y-82443685D01*
X157499999Y-82443685D02*
X157571428Y-82372257D01*
X157571428Y-82372257D02*
X157714285Y-82300828D01*
X157714285Y-82300828D02*
X158071428Y-82300828D01*
X158071428Y-82300828D02*
X158285714Y-82372257D01*
X159571428Y-83800828D02*
X159571428Y-83015114D01*
X159571428Y-83015114D02*
X159499999Y-82872257D01*
X159499999Y-82872257D02*
X159357142Y-82800828D01*
X159357142Y-82800828D02*
X159071428Y-82800828D01*
X159071428Y-82800828D02*
X158928570Y-82872257D01*
X159571428Y-83729400D02*
X159428570Y-83800828D01*
X159428570Y-83800828D02*
X159071428Y-83800828D01*
X159071428Y-83800828D02*
X158928570Y-83729400D01*
X158928570Y-83729400D02*
X158857142Y-83586542D01*
X158857142Y-83586542D02*
X158857142Y-83443685D01*
X158857142Y-83443685D02*
X158928570Y-83300828D01*
X158928570Y-83300828D02*
X159071428Y-83229400D01*
X159071428Y-83229400D02*
X159428570Y-83229400D01*
X159428570Y-83229400D02*
X159571428Y-83157971D01*
X160285713Y-83800828D02*
X160285713Y-82800828D01*
X160285713Y-82300828D02*
X160214285Y-82372257D01*
X160214285Y-82372257D02*
X160285713Y-82443685D01*
X160285713Y-82443685D02*
X160357142Y-82372257D01*
X160357142Y-82372257D02*
X160285713Y-82300828D01*
X160285713Y-82300828D02*
X160285713Y-82443685D01*
D15*
X165916667Y-92407200D02*
X166059524Y-92454819D01*
X166059524Y-92454819D02*
X166297619Y-92454819D01*
X166297619Y-92454819D02*
X166392857Y-92407200D01*
X166392857Y-92407200D02*
X166440476Y-92359580D01*
X166440476Y-92359580D02*
X166488095Y-92264342D01*
X166488095Y-92264342D02*
X166488095Y-92169104D01*
X166488095Y-92169104D02*
X166440476Y-92073866D01*
X166440476Y-92073866D02*
X166392857Y-92026247D01*
X166392857Y-92026247D02*
X166297619Y-91978628D01*
X166297619Y-91978628D02*
X166107143Y-91931009D01*
X166107143Y-91931009D02*
X166011905Y-91883390D01*
X166011905Y-91883390D02*
X165964286Y-91835771D01*
X165964286Y-91835771D02*
X165916667Y-91740533D01*
X165916667Y-91740533D02*
X165916667Y-91645295D01*
X165916667Y-91645295D02*
X165964286Y-91550057D01*
X165964286Y-91550057D02*
X166011905Y-91502438D01*
X166011905Y-91502438D02*
X166107143Y-91454819D01*
X166107143Y-91454819D02*
X166345238Y-91454819D01*
X166345238Y-91454819D02*
X166488095Y-91502438D01*
X166821429Y-91454819D02*
X167059524Y-92454819D01*
X167059524Y-92454819D02*
X167250000Y-91740533D01*
X167250000Y-91740533D02*
X167440476Y-92454819D01*
X167440476Y-92454819D02*
X167678572Y-91454819D01*
X168583333Y-92454819D02*
X168011905Y-92454819D01*
X168297619Y-92454819D02*
X168297619Y-91454819D01*
X168297619Y-91454819D02*
X168202381Y-91597676D01*
X168202381Y-91597676D02*
X168107143Y-91692914D01*
X168107143Y-91692914D02*
X168011905Y-91740533D01*
X170531905Y-130994819D02*
X170531905Y-129994819D01*
X170531905Y-129994819D02*
X170770000Y-129994819D01*
X170770000Y-129994819D02*
X170912857Y-130042438D01*
X170912857Y-130042438D02*
X171008095Y-130137676D01*
X171008095Y-130137676D02*
X171055714Y-130232914D01*
X171055714Y-130232914D02*
X171103333Y-130423390D01*
X171103333Y-130423390D02*
X171103333Y-130566247D01*
X171103333Y-130566247D02*
X171055714Y-130756723D01*
X171055714Y-130756723D02*
X171008095Y-130851961D01*
X171008095Y-130851961D02*
X170912857Y-130947200D01*
X170912857Y-130947200D02*
X170770000Y-130994819D01*
X170770000Y-130994819D02*
X170531905Y-130994819D01*
X172055714Y-130994819D02*
X171484286Y-130994819D01*
X171770000Y-130994819D02*
X171770000Y-129994819D01*
X171770000Y-129994819D02*
X171674762Y-130137676D01*
X171674762Y-130137676D02*
X171579524Y-130232914D01*
X171579524Y-130232914D02*
X171484286Y-130280533D01*
X135916667Y-92407200D02*
X136059524Y-92454819D01*
X136059524Y-92454819D02*
X136297619Y-92454819D01*
X136297619Y-92454819D02*
X136392857Y-92407200D01*
X136392857Y-92407200D02*
X136440476Y-92359580D01*
X136440476Y-92359580D02*
X136488095Y-92264342D01*
X136488095Y-92264342D02*
X136488095Y-92169104D01*
X136488095Y-92169104D02*
X136440476Y-92073866D01*
X136440476Y-92073866D02*
X136392857Y-92026247D01*
X136392857Y-92026247D02*
X136297619Y-91978628D01*
X136297619Y-91978628D02*
X136107143Y-91931009D01*
X136107143Y-91931009D02*
X136011905Y-91883390D01*
X136011905Y-91883390D02*
X135964286Y-91835771D01*
X135964286Y-91835771D02*
X135916667Y-91740533D01*
X135916667Y-91740533D02*
X135916667Y-91645295D01*
X135916667Y-91645295D02*
X135964286Y-91550057D01*
X135964286Y-91550057D02*
X136011905Y-91502438D01*
X136011905Y-91502438D02*
X136107143Y-91454819D01*
X136107143Y-91454819D02*
X136345238Y-91454819D01*
X136345238Y-91454819D02*
X136488095Y-91502438D01*
X136821429Y-91454819D02*
X137059524Y-92454819D01*
X137059524Y-92454819D02*
X137250000Y-91740533D01*
X137250000Y-91740533D02*
X137440476Y-92454819D01*
X137440476Y-92454819D02*
X137678572Y-91454819D01*
X138011905Y-91550057D02*
X138059524Y-91502438D01*
X138059524Y-91502438D02*
X138154762Y-91454819D01*
X138154762Y-91454819D02*
X138392857Y-91454819D01*
X138392857Y-91454819D02*
X138488095Y-91502438D01*
X138488095Y-91502438D02*
X138535714Y-91550057D01*
X138535714Y-91550057D02*
X138583333Y-91645295D01*
X138583333Y-91645295D02*
X138583333Y-91740533D01*
X138583333Y-91740533D02*
X138535714Y-91883390D01*
X138535714Y-91883390D02*
X137964286Y-92454819D01*
X137964286Y-92454819D02*
X138583333Y-92454819D01*
X129991905Y-131994819D02*
X129991905Y-130994819D01*
X129991905Y-130994819D02*
X130230000Y-130994819D01*
X130230000Y-130994819D02*
X130372857Y-131042438D01*
X130372857Y-131042438D02*
X130468095Y-131137676D01*
X130468095Y-131137676D02*
X130515714Y-131232914D01*
X130515714Y-131232914D02*
X130563333Y-131423390D01*
X130563333Y-131423390D02*
X130563333Y-131566247D01*
X130563333Y-131566247D02*
X130515714Y-131756723D01*
X130515714Y-131756723D02*
X130468095Y-131851961D01*
X130468095Y-131851961D02*
X130372857Y-131947200D01*
X130372857Y-131947200D02*
X130230000Y-131994819D01*
X130230000Y-131994819D02*
X129991905Y-131994819D01*
X130944286Y-131090057D02*
X130991905Y-131042438D01*
X130991905Y-131042438D02*
X131087143Y-130994819D01*
X131087143Y-130994819D02*
X131325238Y-130994819D01*
X131325238Y-130994819D02*
X131420476Y-131042438D01*
X131420476Y-131042438D02*
X131468095Y-131090057D01*
X131468095Y-131090057D02*
X131515714Y-131185295D01*
X131515714Y-131185295D02*
X131515714Y-131280533D01*
X131515714Y-131280533D02*
X131468095Y-131423390D01*
X131468095Y-131423390D02*
X130896667Y-131994819D01*
X130896667Y-131994819D02*
X131515714Y-131994819D01*
D16*
%TO.C,SW1*%
X163750000Y-95500000D02*
X163750000Y-97000000D01*
X165000000Y-99500000D02*
X169500000Y-99500000D01*
X169500000Y-93000000D02*
X165000000Y-93000000D01*
X170750000Y-97000000D02*
X170750000Y-95500000D01*
%TO.C,D1*%
X168710000Y-132955000D02*
X168710000Y-136045000D01*
X168710000Y-132955170D02*
G75*
G02*
X174260000Y-134499952I2560000J-1544830D01*
G01*
X174260000Y-134500048D02*
G75*
G02*
X168710000Y-136044830I-2990000J48D01*
G01*
X173770000Y-134500000D02*
G75*
G02*
X168770000Y-134500000I-2500000J0D01*
G01*
X168770000Y-134500000D02*
G75*
G02*
X173770000Y-134500000I2500000J0D01*
G01*
%TO.C,SW2*%
X133750000Y-95500000D02*
X133750000Y-97000000D01*
X135000000Y-99500000D02*
X139500000Y-99500000D01*
X139500000Y-93000000D02*
X135000000Y-93000000D01*
X140750000Y-97000000D02*
X140750000Y-95500000D01*
%TO.C,D2*%
X128170000Y-133955000D02*
X128170000Y-137045000D01*
X128170000Y-133955170D02*
G75*
G02*
X133720000Y-135499952I2560000J-1544830D01*
G01*
X133720000Y-135500048D02*
G75*
G02*
X128170000Y-137044830I-2990000J48D01*
G01*
X133230000Y-135500000D02*
G75*
G02*
X128230000Y-135500000I-2500000J0D01*
G01*
X128230000Y-135500000D02*
G75*
G02*
X133230000Y-135500000I2500000J0D01*
G01*
%TD*%
M02*
