%TF.GenerationSoftware,KiCad,Pcbnew,9.0.1*%
%TF.CreationDate,2025-04-08T04:17:53-04:00*%
%TF.ProjectId,juiceshanghai,6a756963-6573-4686-916e-676861692e6b,rev?*%
%TF.SameCoordinates,Original*%
%TF.FileFunction,Legend,Bot*%
%TF.FilePolarity,Positive*%
%FSLAX46Y46*%
G04 Gerber Fmt 4.6, Leading zero omitted, Abs format (unit mm)*
G04 Created by KiCad (PCBNEW 9.0.1) date 2025-04-08 04:17:53*
%MOMM*%
%LPD*%
G01*
G04 APERTURE LIST*
%ADD10C,0.150000*%
%ADD11C,0.120000*%
G04 APERTURE END LIST*
D10*
X152300714Y-107931009D02*
X152157857Y-107978628D01*
X152157857Y-107978628D02*
X152110238Y-108026247D01*
X152110238Y-108026247D02*
X152062619Y-108121485D01*
X152062619Y-108121485D02*
X152062619Y-108264342D01*
X152062619Y-108264342D02*
X152110238Y-108359580D01*
X152110238Y-108359580D02*
X152157857Y-108407200D01*
X152157857Y-108407200D02*
X152253095Y-108454819D01*
X152253095Y-108454819D02*
X152634047Y-108454819D01*
X152634047Y-108454819D02*
X152634047Y-107454819D01*
X152634047Y-107454819D02*
X152300714Y-107454819D01*
X152300714Y-107454819D02*
X152205476Y-107502438D01*
X152205476Y-107502438D02*
X152157857Y-107550057D01*
X152157857Y-107550057D02*
X152110238Y-107645295D01*
X152110238Y-107645295D02*
X152110238Y-107740533D01*
X152110238Y-107740533D02*
X152157857Y-107835771D01*
X152157857Y-107835771D02*
X152205476Y-107883390D01*
X152205476Y-107883390D02*
X152300714Y-107931009D01*
X152300714Y-107931009D02*
X152634047Y-107931009D01*
X151776904Y-107454819D02*
X151205476Y-107454819D01*
X151491190Y-108454819D02*
X151491190Y-107454819D01*
X150348333Y-108454819D02*
X150919761Y-108454819D01*
X150634047Y-108454819D02*
X150634047Y-107454819D01*
X150634047Y-107454819D02*
X150729285Y-107597676D01*
X150729285Y-107597676D02*
X150824523Y-107692914D01*
X150824523Y-107692914D02*
X150919761Y-107740533D01*
D11*
%TO.C,BT1*%
X162295000Y-114040000D02*
X162295000Y-116500000D01*
X162295000Y-122500000D02*
X162295000Y-123130000D01*
X162295000Y-123130000D02*
X160855000Y-127080000D01*
X160215000Y-111960000D02*
X162295000Y-114040000D01*
X156715000Y-111960000D02*
X160215000Y-111960000D01*
X142815000Y-111960000D02*
X146315000Y-111960000D01*
X142815000Y-111960000D02*
X140735000Y-114040000D01*
X140735000Y-114040000D02*
X140735000Y-116500000D01*
X140735000Y-122500000D02*
X140735000Y-123130000D01*
X140735000Y-123130000D02*
X142175000Y-127080000D01*
X160855000Y-127080000D02*
G75*
G02*
X157518354Y-128066530I-2030000J730001D01*
G01*
X145515000Y-128050000D02*
G75*
G02*
X142189757Y-127088169I-1310000J1700000D01*
G01*
%TD*%
M02*
